<mxfile host="app.diagrams.net" modified="2021-05-07T00:27:31.566Z" agent="5.0 (Windows NT 10.0; Win64; x64) AppleWebKit/537.36 (KHTML, like Gecko) Chrome/90.0.4430.93 Safari/537.36" etag="UlleI1NJINk1LGFMS0H2" version="14.6.10" type="github">
  <diagram id="Qycy08QcIfNXntsWdgaS" name="Page-1">
    <mxGraphModel dx="1718" dy="482" grid="1" gridSize="10" guides="1" tooltips="1" connect="1" arrows="1" fold="1" page="1" pageScale="1" pageWidth="850" pageHeight="1100" math="0" shadow="0">
      <root>
        <mxCell id="0" />
        <mxCell id="1" parent="0" />
        <mxCell id="xVIOy7zhOcTDgXFaOAdR-1" value="&lt;font style=&quot;font-size: 50px&quot; color=&quot;#050505&quot;&gt;&lt;b&gt;Movie App (Root)&lt;/b&gt;&lt;/font&gt;" style="rounded=0;whiteSpace=wrap;html=1;strokeColor=#005700;shadow=1;fillColor=#008a00;fontColor=#ffffff;" parent="1" vertex="1">
          <mxGeometry x="-10" y="40" width="860" height="80" as="geometry" />
        </mxCell>
        <mxCell id="FWue6uw8JSM6iXgd7IZT-2" value="&lt;font color=&quot;#000000&quot; style=&quot;font-size: 50px&quot;&gt;&lt;i&gt;Header&lt;/i&gt;&lt;/font&gt;" style="rounded=1;whiteSpace=wrap;html=1;align=center;labelBackgroundColor=#2BFF2B;labelBorderColor=#3F21FF;fillColor=#60a917;strokeColor=#2D7600;fontColor=#ffffff;" vertex="1" parent="1">
          <mxGeometry x="-10" y="130" width="860" height="80" as="geometry" />
        </mxCell>
        <mxCell id="FWue6uw8JSM6iXgd7IZT-4" value="&lt;b&gt;&lt;u&gt;Components&lt;/u&gt;&lt;/b&gt;" style="rounded=0;whiteSpace=wrap;html=1;labelBackgroundColor=#2BFF2B;align=center;" vertex="1" parent="1">
          <mxGeometry x="-10" y="240" width="860" height="30" as="geometry" />
        </mxCell>
        <mxCell id="FWue6uw8JSM6iXgd7IZT-5" value="&lt;font style=&quot;font-size: 32px&quot;&gt;User Account&lt;/font&gt;" style="rounded=1;whiteSpace=wrap;html=1;labelBackgroundColor=#2BFF2B;align=center;" vertex="1" parent="1">
          <mxGeometry x="-10" y="300" width="430" height="60" as="geometry" />
        </mxCell>
        <mxCell id="FWue6uw8JSM6iXgd7IZT-14" style="edgeStyle=orthogonalEdgeStyle;rounded=0;orthogonalLoop=1;jettySize=auto;html=1;exitX=0;exitY=0.5;exitDx=0;exitDy=0;entryX=1;entryY=0.5;entryDx=0;entryDy=0;" edge="1" parent="1" source="FWue6uw8JSM6iXgd7IZT-6" target="FWue6uw8JSM6iXgd7IZT-5">
          <mxGeometry relative="1" as="geometry" />
        </mxCell>
        <mxCell id="FWue6uw8JSM6iXgd7IZT-6" value="&lt;font style=&quot;font-size: 30px&quot;&gt;Choose a Movie&lt;/font&gt;" style="rounded=1;whiteSpace=wrap;html=1;labelBackgroundColor=#2BFF2B;align=center;" vertex="1" parent="1">
          <mxGeometry x="420" y="300" width="430" height="60" as="geometry" />
        </mxCell>
        <mxCell id="FWue6uw8JSM6iXgd7IZT-7" value="Rating" style="shape=process;whiteSpace=wrap;html=1;backgroundOutline=1;labelBackgroundColor=#2BFF2B;align=center;" vertex="1" parent="1">
          <mxGeometry x="420" y="670" width="430" height="60" as="geometry" />
        </mxCell>
        <mxCell id="FWue6uw8JSM6iXgd7IZT-8" value="Director" style="shape=process;whiteSpace=wrap;html=1;backgroundOutline=1;labelBackgroundColor=#2BFF2B;align=center;" vertex="1" parent="1">
          <mxGeometry x="420" y="550" width="430" height="60" as="geometry" />
        </mxCell>
        <mxCell id="FWue6uw8JSM6iXgd7IZT-9" value="Comments" style="shape=process;whiteSpace=wrap;html=1;backgroundOutline=1;labelBackgroundColor=#2BFF2B;align=center;" vertex="1" parent="1">
          <mxGeometry x="420" y="730" width="430" height="60" as="geometry" />
        </mxCell>
        <mxCell id="FWue6uw8JSM6iXgd7IZT-10" value="Year" style="shape=process;whiteSpace=wrap;html=1;backgroundOutline=1;labelBackgroundColor=#2BFF2B;align=center;" vertex="1" parent="1">
          <mxGeometry x="420" y="490" width="430" height="60" as="geometry" />
        </mxCell>
        <mxCell id="FWue6uw8JSM6iXgd7IZT-11" value="Title" style="shape=process;whiteSpace=wrap;html=1;backgroundOutline=1;labelBackgroundColor=#2BFF2B;align=center;" vertex="1" parent="1">
          <mxGeometry x="420" y="430" width="430" height="60" as="geometry" />
        </mxCell>
        <mxCell id="FWue6uw8JSM6iXgd7IZT-12" value="Synopsis" style="shape=process;whiteSpace=wrap;html=1;backgroundOutline=1;labelBackgroundColor=#2BFF2B;align=center;" vertex="1" parent="1">
          <mxGeometry x="420" y="610" width="430" height="60" as="geometry" />
        </mxCell>
        <mxCell id="FWue6uw8JSM6iXgd7IZT-15" value="" style="rounded=1;whiteSpace=wrap;html=1;labelBackgroundColor=#2BFF2B;align=center;" vertex="1" parent="1">
          <mxGeometry y="860" width="850" height="60" as="geometry" />
        </mxCell>
        <mxCell id="FWue6uw8JSM6iXgd7IZT-16" value="Genre" style="shape=process;whiteSpace=wrap;html=1;backgroundOutline=1;labelBackgroundColor=#2BFF2B;align=center;" vertex="1" parent="1">
          <mxGeometry x="420" y="370" width="430" height="60" as="geometry" />
        </mxCell>
        <mxCell id="FWue6uw8JSM6iXgd7IZT-17" value="Name" style="shape=process;whiteSpace=wrap;html=1;backgroundOutline=1;labelBackgroundColor=#2BFF2B;align=center;" vertex="1" parent="1">
          <mxGeometry x="-10" y="370" width="430" height="60" as="geometry" />
        </mxCell>
        <mxCell id="FWue6uw8JSM6iXgd7IZT-18" value="Date of Birth" style="shape=process;whiteSpace=wrap;html=1;backgroundOutline=1;labelBackgroundColor=#2BFF2B;align=center;" vertex="1" parent="1">
          <mxGeometry x="-10" y="430" width="430" height="60" as="geometry" />
        </mxCell>
        <mxCell id="FWue6uw8JSM6iXgd7IZT-19" value="Likes" style="shape=process;whiteSpace=wrap;html=1;backgroundOutline=1;labelBackgroundColor=#2BFF2B;align=center;" vertex="1" parent="1">
          <mxGeometry x="-10" y="490" width="430" height="60" as="geometry" />
        </mxCell>
        <mxCell id="FWue6uw8JSM6iXgd7IZT-20" value="Suggestions" style="shape=process;whiteSpace=wrap;html=1;backgroundOutline=1;labelBackgroundColor=#2BFF2B;align=center;" vertex="1" parent="1">
          <mxGeometry x="-10" y="550" width="430" height="60" as="geometry" />
        </mxCell>
        <mxCell id="FWue6uw8JSM6iXgd7IZT-21" value="Comments User has made" style="shape=process;whiteSpace=wrap;html=1;backgroundOutline=1;labelBackgroundColor=#2BFF2B;align=center;" vertex="1" parent="1">
          <mxGeometry x="-10" y="610" width="430" height="60" as="geometry" />
        </mxCell>
      </root>
    </mxGraphModel>
  </diagram>
</mxfile>
